<svg xmlns="http://www.w3.org/2000/svg" width="512" height="512" viewBox="0 0 512 512">
    <rect fill="#fefefe" x="12" y="12" width="488" height="488" rx="244" ry="244"/>
    <path
        fill-rule="evenodd"
        d="M136.554,159.427h8.921s7.6,43.361-27.755,42.55c-26.436-.189-31.559-24.351-31.72-37.6,0.622-24.008,16.394-40.571,42.624-40.571,36.192,0,46.076,24.738,57.493,52.445,5.275,14.98,27.755,87.08,27.755,87.08s24.676,73.78,23.79,107.859c23.012-21.11-38.711-193.664-46.589-213.74a74.546,74.546,0,0,0-15.86-25.728l5.947-4.947s9.011,4.572,16.852,23.748c20.122,49.217,58.866,174.94,52.536,199.887,13.763-24.431,40.7-73.118,44.607-99.943-1.488-29.716-20.968-51.986-21.808-96.975,0-14.5,3.361-24.961,19.825-27.707,29.954,0.086,26.93,39.321,26.764,50.466,0.1,23.883-7.581,36.705-10.9,74.216,3.228,35.441,31.72,118.744,31.72,118.744S415.884,261.288,415.1,166.354c-2.886-24.118-9.883-32.923-27.755-32.655s-23.79,2.969-23.79,2.969l-0.991-10.885s25.629-5.567,38.659-.989,24.349,13.173,24.781,41.56c-2.388,87.227-44.64,160.613-77.318,211.761-7.665,10.069-6.78,10.167-15.86,9.895-3.028-17.762-30.072-102.253-31.72-115.775-2.1,14.162-50.377,98.6-53.528,104.891-3.772,6.083-5.54,10.95-18.833,11.874,4.957-27.619-3.33-57.787-22.8-122.7-2.5-8.332-28.747-87.079-28.747-87.079S161.32,133.29,128.624,133.7s-33.842,26.145-33.7,31.666,4.556,26.717,22.8,26.717S136.944,179.27,136.554,159.427Zm165.539,70.257s-36.5-93.724-6.938-92.026S302.093,229.684,302.093,229.684Z"
    />
</svg>
